<?xml version="1.0" standalone="no"?>
<!DOCTYPE svg PUBLIC "-//W3C//DTD SVG 20010904//EN"
 "http://www.w3.org/TR/2001/REC-SVG-20010904/DTD/svg10.dtd">
<svg version="1.0" xmlns="http://www.w3.org/2000/svg"
 width="512.000000pt" height="512.000000pt" viewBox="0 0 512.000000 512.000000"
 preserveAspectRatio="xMidYMid meet">
<metadata>
Created by potrace 1.14, written by Peter Selinger 2001-2017
</metadata>
<g transform="translate(0.000000,512.000000) scale(0.100000,-0.100000)"
fill="#000000" stroke="none">
<path d="M1360 4160 c-98 -4 -156 -11 -180 -21 -56 -25 -101 -40 -160 -55
-114 -27 -145 -38 -153 -51 -4 -7 -14 -13 -22 -13 -7 0 -20 -6 -27 -13 -7 -7
-40 -24 -73 -37 -33 -14 -64 -30 -68 -37 -4 -7 -15 -13 -22 -13 -8 0 -15 -6
-15 -12 0 -7 -23 -24 -50 -37 -28 -14 -50 -29 -50 -33 0 -4 -7 -8 -15 -8 -8 0
-15 -4 -15 -10 0 -10 -47 -60 -57 -60 -11 0 -173 -170 -173 -181 0 -5 -4 -9
-8 -9 -10 0 -110 -147 -143 -210 -13 -25 -26 -47 -29 -50 -3 -3 -11 -16 -18
-30 -7 -14 -19 -37 -27 -51 -8 -14 -22 -52 -32 -85 -15 -52 -18 -117 -21 -539
-3 -477 -3 -480 18 -493 17 -10 27 -10 55 4 19 9 35 20 35 25 0 5 7 9 15 9 8
0 23 8 33 18 11 9 28 24 38 32 85 67 103 80 109 80 5 0 87 62 105 80 3 3 17
11 33 19 15 8 27 18 27 23 0 4 7 8 15 8 9 0 18 7 21 15 4 8 12 15 20 15 8 0
14 4 14 8 0 5 23 23 50 41 28 18 50 37 50 42 0 5 7 9 15 9 8 0 15 4 15 9 0 5
25 26 56 46 31 21 64 46 73 56 8 11 19 19 24 19 4 0 13 5 20 10 36 32 164 120
173 120 7 0 14 7 18 15 3 8 12 15 21 15 8 0 15 4 15 10 0 5 12 16 28 24 15 8
41 26 57 40 39 34 43 36 90 71 22 17 42 33 43 38 2 4 10 7 18 7 8 0 17 7 20
15 4 8 12 15 20 15 7 0 17 6 21 13 4 6 27 25 51 41 23 16 42 33 42 37 0 5 7 9
15 9 9 0 18 7 21 15 4 8 12 15 20 15 8 0 14 4 14 8 0 5 12 15 27 23 15 8 40
26 55 42 15 15 30 27 33 27 3 0 15 9 27 20 12 11 28 20 35 20 7 0 13 5 13 10
0 6 6 10 13 10 6 0 25 14 41 31 17 16 40 32 53 35 13 4 23 12 23 20 0 8 5 14
10 14 10 0 103 62 126 84 7 6 25 20 40 31 16 11 44 34 64 50 19 17 51 42 70
57 19 14 53 42 75 62 22 19 48 38 58 42 9 3 17 10 17 15 0 5 7 9 15 9 7 0 18
6 22 13 4 7 21 21 36 30 16 10 37 27 48 38 24 24 25 77 2 86 -10 4 -21 11 -24
16 -3 4 -25 11 -48 14 -24 3 -45 12 -48 19 -3 8 -13 14 -23 14 -11 0 -22 4
-25 10 -11 18 -90 47 -146 52 -31 4 -65 11 -75 17 -21 12 -97 40 -131 48 -13
3 -23 9 -23 14 0 10 -293 9 -530 -1z"/>
<path d="M3120 4120 c-21 -22 -43 -40 -49 -40 -6 0 -11 -4 -11 -8 0 -4 -12
-15 -27 -24 -16 -9 -46 -35 -68 -57 -22 -22 -46 -40 -52 -41 -7 0 -13 -3 -13
-8 0 -4 -32 -31 -71 -61 -39 -30 -85 -68 -103 -85 -17 -17 -44 -37 -59 -45
-15 -8 -27 -17 -27 -21 0 -4 -20 -29 -45 -56 -50 -53 -59 -80 -22 -68 12 4 24
9 27 13 8 10 73 40 102 47 15 3 29 12 32 20 3 8 12 14 21 14 8 0 15 4 15 9 0
5 24 21 53 35 30 14 60 32 67 41 7 8 18 15 25 15 7 0 15 7 19 15 3 8 10 15 16
15 9 0 65 35 80 50 3 3 14 10 25 16 58 32 71 40 78 52 4 6 15 12 22 12 8 0 15
4 15 9 0 5 14 14 30 20 17 5 30 15 30 20 0 6 5 11 10 11 12 0 72 40 82 55 3 6
27 19 52 30 29 13 46 26 46 38 0 15 -13 17 -131 17 l-131 0 -38 -40z"/>
<path d="M3651 4153 c-8 -3 -26 -18 -40 -32 -15 -14 -38 -32 -54 -40 -15 -8
-50 -37 -79 -65 -29 -29 -66 -58 -82 -66 -58 -30 -66 -35 -66 -47 0 -7 -7 -13
-15 -13 -9 0 -18 -7 -21 -15 -4 -8 -10 -15 -15 -15 -13 0 -72 -42 -82 -57 -4
-7 -13 -13 -18 -13 -6 0 -24 -14 -42 -30 -18 -17 -40 -33 -49 -36 -10 -3 -18
-10 -18 -15 0 -5 -7 -9 -15 -9 -9 0 -18 -7 -21 -15 -4 -8 -11 -15 -18 -15 -6
0 -27 -16 -46 -35 -19 -19 -40 -35 -47 -35 -8 0 -16 -7 -19 -15 -4 -8 -10 -15
-14 -15 -5 0 -31 -21 -58 -46 -48 -44 -74 -62 -119 -83 -11 -5 -34 -27 -49
-48 -15 -21 -37 -45 -47 -54 -18 -14 -18 -17 -3 -22 10 -4 19 -1 22 7 3 8 24
17 47 20 36 6 78 30 144 86 7 5 17 10 22 10 19 0 81 35 81 46 0 7 8 14 18 17
28 10 131 72 161 98 35 29 80 58 104 66 9 3 17 9 17 13 0 4 14 13 30 20 17 7
30 16 30 21 0 5 7 9 15 9 9 0 18 7 21 15 4 8 12 15 19 15 6 0 22 9 35 20 13
11 27 20 32 20 5 0 21 11 36 25 15 14 37 28 50 31 12 4 22 12 22 20 0 8 9 14
19 14 11 0 26 7 35 15 8 8 17 15 20 15 3 0 28 16 55 35 26 19 53 35 60 35 6 0
11 4 11 9 0 5 9 13 20 16 22 7 80 64 80 79 0 5 7 14 16 21 15 10 15 13 -1 28
-13 13 -34 17 -93 16 -42 0 -83 -3 -91 -6z"/>
<path d="M4065 4075 c-5 -1 -30 -8 -55 -16 -25 -7 -56 -24 -70 -38 -36 -37
-158 -131 -170 -131 -5 0 -10 -5 -10 -10 0 -6 -11 -15 -25 -20 -14 -5 -25 -14
-25 -20 0 -5 -6 -10 -14 -10 -8 0 -31 -16 -50 -35 -20 -19 -39 -35 -42 -35 -8
0 -69 -44 -72 -52 -2 -5 -10 -8 -18 -8 -8 0 -17 -7 -20 -15 -4 -8 -11 -15 -18
-15 -6 0 -19 -9 -29 -20 -9 -11 -23 -20 -31 -20 -8 0 -16 -7 -20 -15 -3 -8
-12 -15 -21 -15 -8 0 -15 -7 -15 -15 0 -8 -7 -15 -15 -15 -9 0 -18 -7 -21 -15
-4 -8 -12 -15 -19 -15 -6 0 -20 -9 -30 -20 -10 -11 -24 -20 -30 -20 -7 0 -15
-7 -19 -15 -3 -8 -12 -15 -21 -15 -8 0 -15 -4 -15 -10 0 -5 -11 -12 -24 -16
-14 -3 -27 -12 -30 -20 -3 -8 -12 -14 -21 -14 -8 0 -15 -7 -15 -15 0 -8 -7
-15 -15 -15 -9 0 -18 -7 -21 -15 -4 -8 -12 -15 -20 -15 -8 0 -22 -9 -31 -20
-10 -11 -23 -20 -30 -20 -7 0 -13 -7 -13 -15 0 -8 -7 -15 -15 -15 -9 0 -18 -7
-21 -15 -4 -8 -11 -15 -17 -15 -18 0 -77 -44 -77 -57 0 -7 -7 -13 -15 -13 -8
0 -15 -7 -15 -15 0 -8 -7 -15 -15 -15 -7 0 -18 -6 -22 -13 -4 -7 -20 -18 -36
-25 -15 -6 -36 -26 -47 -44 l-20 -33 21 -3 c24 -4 80 21 99 43 7 8 18 15 25
15 7 0 18 7 25 15 7 8 23 15 36 15 15 0 24 6 24 15 0 8 5 15 10 15 10 0 61 33
85 55 7 6 29 19 51 30 21 11 43 26 47 33 4 6 15 12 22 12 8 0 15 4 15 9 0 5
24 21 53 35 30 14 60 32 67 41 7 8 18 15 25 15 7 0 15 7 19 15 3 8 10 15 16
15 6 0 20 9 32 20 12 11 28 20 35 20 7 0 13 5 13 10 0 6 7 10 15 10 9 0 18 7
21 15 4 8 11 15 17 15 5 0 43 23 84 50 40 28 78 50 83 50 6 0 10 5 10 10 0 6
12 16 28 23 15 6 31 17 35 24 4 7 15 13 22 13 8 0 15 4 15 9 0 5 12 13 28 19
15 5 39 20 53 33 31 28 55 45 89 61 14 7 27 15 30 18 3 3 24 18 48 34 23 16
42 32 42 36 0 4 16 11 35 14 19 4 35 11 35 16 0 6 5 10 11 10 15 0 59 42 59
58 0 6 5 12 10 12 6 0 10 13 10 29 0 23 -7 32 -34 45 -33 15 -49 18 -71 11z"/>
<path d="M4310 3941 c0 -5 -14 -12 -31 -16 -17 -4 -33 -13 -36 -21 -3 -8 -9
-14 -14 -14 -5 0 -17 -8 -27 -17 -49 -47 -127 -109 -143 -115 -11 -4 -19 -12
-19 -18 0 -6 -4 -9 -8 -6 -5 3 -18 -4 -30 -14 -12 -11 -25 -20 -29 -20 -5 0
-19 -13 -33 -30 -13 -16 -36 -32 -51 -35 -15 -4 -30 -13 -33 -21 -3 -8 -12
-14 -21 -14 -8 0 -15 -7 -15 -15 0 -8 -6 -15 -14 -15 -8 0 -16 -7 -20 -15 -3
-8 -12 -15 -19 -15 -8 0 -22 -9 -32 -20 -10 -11 -24 -20 -30 -20 -7 0 -15 -7
-19 -15 -3 -8 -10 -15 -16 -15 -6 0 -20 -8 -31 -18 -10 -11 -32 -25 -47 -33
-15 -8 -39 -26 -53 -40 -14 -15 -35 -30 -47 -33 -11 -4 -23 -13 -26 -21 -3 -8
-12 -15 -20 -15 -7 0 -16 -7 -20 -15 -3 -8 -12 -15 -21 -15 -8 0 -15 -4 -15
-9 0 -5 -9 -12 -20 -16 -11 -3 -35 -22 -55 -41 -19 -19 -40 -34 -45 -34 -6 0
-10 -4 -10 -9 0 -5 -13 -14 -30 -21 -16 -7 -30 -16 -30 -21 0 -5 -6 -9 -13 -9
-7 0 -24 -12 -38 -27 -13 -16 -35 -34 -47 -40 -55 -32 -67 -40 -101 -70 -20
-18 -41 -33 -47 -33 -7 0 -14 -7 -18 -15 -3 -8 -12 -15 -21 -15 -8 0 -15 -4
-15 -9 0 -5 -16 -19 -35 -32 -19 -13 -35 -30 -35 -36 0 -7 -7 -13 -15 -13 -8
0 -15 -4 -15 -9 0 -5 -9 -13 -20 -16 -12 -4 -39 -25 -60 -48 -34 -34 -38 -43
-24 -50 8 -5 23 -5 32 -1 9 4 20 7 23 6 4 -1 18 9 32 22 14 13 31 26 38 30 8
4 32 18 54 31 22 14 50 30 63 36 12 7 22 16 22 21 0 4 7 8 15 8 9 0 18 6 21
14 3 8 19 18 35 21 16 4 29 11 29 16 0 5 5 9 11 9 7 0 31 16 55 35 23 19 47
35 53 35 5 0 14 6 18 13 4 6 26 21 47 32 22 11 44 25 51 30 20 18 70 51 88 58
9 3 17 11 17 16 0 5 11 12 25 15 14 4 25 11 25 16 0 6 7 10 15 10 7 0 18 6 22
13 10 15 38 34 76 50 15 6 27 17 27 24 0 7 9 13 20 13 11 0 20 4 20 9 0 5 14
14 30 21 17 7 30 16 30 21 0 5 6 9 13 9 8 0 22 9 32 20 10 11 24 20 32 20 7 0
16 7 19 15 4 8 12 15 20 15 8 0 14 4 14 9 0 5 9 13 20 16 11 3 26 12 33 18 17
15 45 34 77 50 14 6 38 26 55 42 16 17 32 29 35 28 10 -5 40 8 40 18 0 5 7 9
15 9 7 0 18 6 22 13 10 15 69 57 82 57 5 0 11 7 15 15 3 8 16 15 30 15 13 0
26 7 30 15 3 8 12 15 21 15 8 0 15 4 15 9 0 10 80 51 107 55 14 3 18 13 17 47
-1 23 -6 45 -13 47 -6 2 -11 9 -11 15 -1 24 -100 61 -100 38z"/>
<path d="M4439 3712 c-19 -26 -53 -56 -75 -67 -21 -11 -43 -26 -47 -32 -4 -7
-15 -13 -22 -13 -8 0 -15 -7 -15 -15 0 -8 -7 -15 -15 -15 -8 0 -15 -5 -15 -11
0 -5 -13 -15 -29 -20 -16 -6 -32 -17 -35 -25 -3 -8 -12 -14 -20 -14 -7 0 -16
-7 -20 -15 -3 -8 -12 -15 -21 -15 -8 0 -15 -6 -15 -12 0 -7 -19 -22 -43 -33
-23 -11 -53 -31 -68 -45 -30 -30 -78 -64 -101 -73 -10 -3 -18 -11 -18 -17 0
-5 -7 -10 -15 -10 -9 0 -18 -7 -21 -15 -4 -8 -12 -15 -20 -15 -8 0 -22 -9 -31
-20 -10 -11 -23 -20 -30 -20 -7 0 -13 -4 -13 -9 0 -5 -20 -22 -45 -38 -25 -15
-45 -31 -45 -35 0 -5 -7 -8 -15 -8 -9 0 -18 -7 -21 -15 -4 -8 -12 -15 -19 -15
-6 0 -20 -9 -30 -20 -10 -11 -24 -20 -30 -20 -7 0 -15 -7 -19 -15 -3 -8 -12
-15 -20 -15 -7 0 -16 -7 -20 -15 -3 -8 -12 -15 -21 -15 -8 0 -15 -5 -15 -10 0
-6 -12 -16 -27 -22 -16 -7 -38 -23 -50 -35 -12 -13 -25 -23 -28 -23 -4 0 -26
-16 -49 -35 -24 -19 -48 -35 -55 -35 -6 0 -11 -4 -11 -9 0 -4 -19 -21 -42 -36
-24 -16 -47 -34 -51 -42 -4 -7 -14 -13 -21 -13 -8 0 -16 -7 -20 -15 -3 -8 -12
-15 -19 -15 -13 0 -25 -9 -87 -64 -25 -22 -46 -33 -64 -34 -5 0 -13 -7 -18
-16 -5 -9 -16 -16 -23 -16 -8 0 -15 -7 -15 -15 0 -8 -7 -15 -15 -15 -8 0 -15
-7 -15 -15 0 -8 -4 -15 -8 -15 -24 0 -136 -106 -127 -120 10 -15 55 -12 61 5
4 8 10 15 15 15 9 0 67 38 79 51 3 3 20 11 38 18 17 8 32 17 32 22 0 5 7 9 15
9 9 0 29 14 45 30 16 17 38 30 49 30 10 0 21 7 25 15 3 8 12 15 19 15 13 0 29
11 77 52 8 7 33 22 55 33 22 11 44 25 48 32 4 7 12 13 17 13 6 0 19 8 30 18
11 9 29 25 40 35 11 9 27 17 35 17 8 0 15 4 15 9 0 5 14 14 30 20 17 5 30 15
30 20 0 6 7 11 15 11 9 0 18 7 21 15 4 8 12 15 18 15 7 0 35 16 62 35 27 19
52 35 56 35 4 0 22 14 40 30 18 17 43 33 56 36 12 4 22 10 22 15 0 5 6 9 13 9
7 0 20 9 30 20 9 11 24 20 32 20 8 0 15 5 15 10 0 6 11 15 25 20 14 5 25 13
25 17 0 5 20 17 45 28 25 11 45 24 45 30 0 10 8 16 66 45 16 8 33 20 37 27 4
7 14 13 20 13 13 0 35 15 85 58 15 13 42 30 60 38 17 8 32 19 32 24 0 6 7 10
15 10 8 0 15 5 15 11 0 5 14 15 30 20 17 6 30 15 30 20 0 5 8 9 18 9 11 0 27
9 37 20 10 11 24 20 30 20 7 0 15 7 19 15 3 8 12 15 21 15 8 0 15 4 15 9 0 5
14 14 30 20 17 5 30 15 30 20 0 6 7 11 16 11 27 0 53 42 54 85 0 58 -24 75
-103 74 -62 0 -62 0 -98 -47z"/>
<path d="M4657 3550 c-9 -11 -17 -22 -17 -25 0 -10 -48 -55 -59 -55 -6 0 -11
-6 -11 -12 0 -7 -20 -22 -45 -33 -25 -11 -45 -25 -45 -32 0 -7 -4 -13 -8 -13
-5 0 -24 -14 -42 -30 -19 -17 -44 -33 -56 -36 -13 -3 -25 -12 -28 -20 -3 -8
-12 -14 -21 -14 -8 0 -15 -6 -15 -14 0 -7 -8 -16 -17 -19 -23 -7 -68 -36 -102
-64 -14 -12 -39 -34 -56 -48 -16 -14 -36 -25 -42 -25 -7 0 -13 -4 -13 -10 0
-5 -6 -10 -13 -10 -7 0 -20 -9 -30 -20 -9 -11 -23 -20 -31 -20 -8 0 -16 -7
-20 -15 -3 -8 -12 -15 -21 -15 -8 0 -15 -7 -15 -15 0 -8 -5 -15 -11 -15 -15 0
-111 -69 -122 -86 -4 -8 -15 -14 -22 -14 -8 0 -15 -4 -15 -9 0 -5 -13 -14 -30
-20 -16 -5 -30 -15 -30 -20 0 -6 -7 -11 -15 -11 -7 0 -18 -6 -22 -13 -4 -7
-43 -37 -86 -67 -43 -30 -86 -62 -97 -70 -10 -8 -28 -22 -40 -30 -12 -8 -31
-23 -42 -32 -12 -10 -27 -18 -35 -18 -7 0 -16 -7 -19 -15 -4 -8 -10 -15 -15
-15 -6 0 -22 -13 -38 -29 -15 -16 -39 -32 -52 -36 -13 -4 -34 -21 -48 -36 -14
-16 -31 -29 -38 -29 -7 0 -13 -5 -13 -10 0 -6 -10 -15 -22 -21 -42 -19 -64
-34 -103 -73 -22 -21 -55 -45 -72 -52 -18 -8 -33 -19 -33 -24 0 -6 -5 -10 -11
-10 -6 0 -36 -22 -66 -50 -30 -27 -59 -50 -64 -50 -12 0 -44 -33 -52 -53 -3
-9 -11 -17 -17 -17 -5 0 -10 -4 -10 -10 0 -26 119 11 120 38 0 6 7 12 15 12 7
0 18 6 22 13 4 6 28 23 53 36 25 13 61 37 81 52 20 16 42 29 49 29 6 0 18 7
26 15 9 8 24 15 35 15 10 0 19 7 19 15 0 8 4 15 9 15 14 0 91 52 91 62 0 4 8
8 19 8 10 0 24 7 31 15 7 8 17 15 22 15 5 0 21 13 37 29 15 16 39 32 51 36 13
4 28 11 34 16 49 41 61 49 77 54 11 4 19 11 19 16 0 5 7 9 15 9 9 0 18 6 21
14 3 8 19 18 35 21 16 4 29 10 29 14 0 9 107 81 120 81 4 0 10 7 14 15 3 8 12
15 21 15 8 0 15 4 15 8 0 5 11 14 25 20 14 7 31 17 38 22 49 42 62 50 79 50
10 0 18 6 18 13 0 12 5 16 65 47 16 8 40 25 54 38 13 12 35 25 47 28 12 3 25
12 28 20 3 8 12 14 21 14 8 0 15 6 15 13 0 6 23 22 50 35 28 13 50 27 50 32 0
6 7 10 15 10 8 0 24 9 35 20 11 11 24 20 30 20 5 0 13 6 17 13 4 6 26 21 48
32 22 11 55 35 73 53 19 17 42 32 52 32 10 0 20 7 24 15 3 8 10 15 17 15 6 0
29 15 52 34 23 18 64 41 90 51 59 22 76 46 78 109 2 42 -1 51 -27 71 -38 32
-102 34 -127 5z"/>
<path d="M2198 3407 c-63 -55 -81 -67 -99 -67 -10 0 -19 -3 -21 -7 -4 -11 -65
-53 -77 -53 -5 0 -11 -6 -14 -14 -3 -7 -17 -16 -32 -20 -15 -4 -32 -11 -38
-17 -7 -5 -28 -23 -47 -39 -19 -17 -45 -33 -57 -36 -13 -3 -23 -10 -23 -15 0
-5 -15 -15 -32 -23 -18 -8 -45 -25 -60 -38 -14 -13 -43 -33 -64 -44 -20 -10
-48 -29 -62 -41 -13 -12 -37 -28 -53 -35 -16 -7 -29 -16 -29 -20 0 -5 -6 -8
-13 -8 -8 0 -22 -9 -32 -20 -10 -11 -24 -20 -32 -20 -7 0 -16 -7 -19 -15 -4
-8 -12 -15 -19 -15 -7 0 -15 -7 -19 -15 -3 -8 -12 -15 -20 -15 -8 0 -21 -6
-28 -12 -17 -16 -45 -34 -78 -51 -13 -6 -37 -23 -52 -37 -15 -14 -44 -34 -65
-45 -21 -11 -40 -23 -43 -27 -9 -12 -81 -58 -90 -58 -6 0 -10 -4 -10 -9 0 -9
-29 -28 -77 -50 -13 -6 -23 -15 -23 -21 0 -5 -7 -10 -15 -10 -9 0 -18 -7 -21
-15 -4 -8 -11 -15 -17 -15 -13 0 -130 -80 -135 -92 -2 -4 -10 -8 -18 -8 -8 0
-17 -6 -20 -14 -3 -8 -18 -18 -34 -21 -16 -3 -31 -13 -34 -21 -3 -8 -12 -14
-21 -14 -8 0 -15 -4 -15 -9 0 -8 -85 -67 -113 -80 -5 -1 -20 -14 -34 -27 -14
-13 -38 -29 -54 -36 -16 -7 -29 -16 -29 -19 0 -4 -13 -12 -30 -18 -16 -5 -30
-15 -30 -20 0 -6 -7 -11 -15 -11 -9 0 -18 -7 -21 -15 -4 -8 -12 -15 -19 -15
-7 0 -18 -6 -24 -14 -7 -8 -25 -18 -41 -21 -32 -7 -70 -61 -70 -100 0 -31 55
-85 85 -85 39 0 89 29 115 67 14 20 39 42 57 50 18 7 33 18 33 23 0 6 6 10 14
10 7 0 24 10 38 23 62 55 90 76 107 82 10 3 33 19 52 35 49 42 51 44 82 57 15
7 27 17 27 23 0 5 6 10 14 10 8 0 16 7 20 15 3 8 12 15 20 15 7 0 16 7 20 15
3 8 12 15 20 15 8 0 22 8 32 18 10 9 20 17 24 17 4 0 21 14 38 32 18 17 41 35
52 38 11 4 20 11 20 16 0 5 7 9 15 9 9 0 18 7 21 15 4 8 12 15 19 15 6 0 20 9
30 20 10 11 24 20 30 20 7 0 15 7 19 15 3 8 12 15 20 15 7 0 16 7 20 15 3 8
10 15 17 15 6 0 28 14 49 30 21 17 43 30 49 30 6 0 11 6 11 13 0 6 11 18 25
25 14 6 36 18 50 25 14 6 25 18 25 25 0 6 7 12 15 12 9 0 18 7 21 15 4 8 11
15 16 15 5 0 29 16 52 35 24 19 48 35 55 35 6 0 11 4 11 9 0 5 8 12 18 15 9 3
31 18 48 33 36 32 81 62 107 70 9 3 17 12 17 19 0 8 7 14 15 14 8 0 15 5 15
10 0 6 10 15 23 21 44 20 68 37 96 68 15 17 31 31 35 31 4 0 14 7 22 15 9 8
24 15 35 15 10 0 19 7 19 15 0 8 5 15 11 15 6 0 29 18 51 40 22 22 47 40 54
40 8 0 14 5 14 10 0 6 7 10 15 10 8 0 30 15 49 33 42 39 52 47 96 74 38 23 70
57 70 73 0 6 -17 10 -37 10 -29 0 -47 -8 -75 -33z"/>
<path d="M4803 3310 c-9 -16 -21 -30 -25 -30 -4 0 -8 -7 -8 -15 0 -8 -7 -15
-15 -15 -9 0 -18 -6 -21 -14 -3 -8 -16 -17 -30 -20 -13 -4 -43 -26 -68 -50
-24 -24 -53 -47 -66 -51 -20 -6 -46 -25 -90 -65 -26 -23 -73 -56 -92 -63 -10
-3 -18 -11 -18 -17 0 -5 -6 -10 -13 -10 -8 0 -22 -9 -32 -20 -10 -11 -24 -20
-30 -20 -7 0 -15 -7 -19 -15 -3 -8 -12 -15 -21 -15 -8 0 -15 -4 -15 -9 0 -5
-10 -13 -21 -16 -12 -4 -34 -19 -49 -34 -32 -31 -56 -48 -92 -64 -16 -6 -28
-17 -28 -24 0 -7 -7 -13 -15 -13 -9 0 -18 -7 -21 -15 -4 -8 -12 -15 -20 -15
-8 0 -14 -6 -14 -13 0 -7 -12 -18 -27 -24 -35 -15 -60 -32 -92 -61 -15 -12
-36 -25 -48 -28 -13 -4 -23 -12 -23 -20 0 -8 -7 -14 -15 -14 -9 0 -18 -6 -21
-14 -3 -8 -15 -17 -28 -20 -12 -3 -35 -19 -52 -35 -16 -17 -34 -31 -41 -31 -6
0 -13 -3 -15 -7 -4 -11 -65 -53 -75 -53 -5 0 -20 -12 -33 -27 -14 -16 -37 -34
-52 -42 -16 -8 -28 -18 -28 -23 0 -4 -7 -8 -15 -8 -9 0 -18 -7 -21 -15 -4 -8
-12 -15 -20 -15 -8 0 -14 -4 -14 -9 0 -8 -56 -47 -85 -60 -11 -5 -15 -8 -73
-59 -24 -20 -56 -44 -70 -52 -23 -13 -73 -54 -118 -97 -7 -7 -18 -13 -24 -13
-16 0 -70 -39 -100 -72 -13 -15 -30 -28 -36 -28 -7 0 -14 -7 -18 -15 -3 -8
-11 -15 -19 -15 -16 0 -77 -61 -77 -78 0 -28 101 1 123 36 4 6 15 12 22 12 8
0 15 7 15 15 0 8 7 15 15 15 19 0 90 38 106 56 6 8 18 14 25 14 8 0 14 7 14
15 0 8 7 15 15 15 23 0 84 34 85 48 0 6 7 12 15 12 7 0 18 6 22 13 4 7 19 18
33 25 32 15 60 33 78 50 7 6 19 12 27 12 7 0 15 7 19 15 3 8 12 15 21 15 8 0
15 6 15 13 0 7 12 18 28 24 32 15 65 35 73 46 7 10 42 31 77 46 12 6 22 14 22
18 0 5 13 14 30 21 16 7 39 24 52 37 13 14 29 25 36 25 6 0 12 4 12 9 0 5 13
12 29 16 16 3 32 13 35 21 3 8 12 14 21 14 8 0 15 5 15 10 0 6 12 16 28 23 15
6 31 17 35 24 4 7 14 13 22 13 7 0 15 3 17 8 4 10 65 52 77 52 5 0 11 7 15 15
3 8 10 15 16 15 12 0 73 41 78 53 2 4 8 7 12 7 10 0 81 46 90 58 8 11 42 31
73 45 15 6 27 15 27 19 0 4 4 8 9 8 6 0 21 10 35 23 13 12 37 29 53 37 15 8
34 21 41 28 7 6 17 12 21 12 4 0 19 9 32 20 38 31 42 34 72 49 15 8 27 18 27
23 0 4 7 8 15 8 9 0 18 7 21 15 4 8 12 15 20 15 8 0 14 5 14 11 0 5 14 15 30
20 17 6 30 15 30 20 0 5 7 9 15 9 8 0 24 8 35 18 50 43 58 49 73 55 9 3 17 11
17 17 0 5 8 10 18 10 31 0 72 52 72 91 0 54 -45 99 -98 99 -35 0 -43 -4 -59
-30z"/>
<path d="M2580 3301 c0 -6 5 -13 10 -16 6 -3 10 1 10 9 0 9 -4 16 -10 16 -5 0
-10 -4 -10 -9z"/>
<path d="M2228 3087 c-24 -18 -51 -36 -60 -40 -10 -3 -18 -11 -18 -17 0 -5 -7
-10 -15 -10 -23 0 -84 -34 -85 -47 0 -7 -7 -13 -15 -13 -9 0 -18 -6 -21 -14
-3 -8 -19 -18 -35 -21 -16 -4 -29 -10 -29 -15 0 -4 -13 -13 -30 -20 -16 -7
-30 -16 -30 -21 0 -5 -6 -9 -14 -9 -8 0 -16 -6 -19 -14 -3 -8 -19 -17 -36 -21
-17 -4 -31 -11 -31 -16 0 -5 -6 -9 -13 -9 -7 0 -20 -8 -29 -17 -25 -28 -61
-53 -75 -53 -7 0 -13 -5 -13 -11 0 -5 -13 -15 -30 -20 -16 -6 -30 -15 -30 -20
0 -5 -7 -9 -15 -9 -7 0 -18 -6 -22 -12 -9 -14 -34 -31 -73 -50 -14 -7 -29 -18
-33 -25 -4 -7 -15 -13 -22 -13 -8 0 -15 -4 -15 -9 0 -5 -13 -14 -30 -20 -16
-5 -30 -15 -30 -20 0 -6 -7 -11 -15 -11 -8 0 -15 -5 -15 -10 0 -6 -12 -16 -27
-23 -16 -6 -32 -17 -36 -24 -4 -7 -15 -13 -22 -13 -8 0 -15 -4 -15 -9 0 -5
-13 -14 -30 -21 -16 -7 -30 -16 -30 -21 0 -5 -7 -9 -15 -9 -9 0 -18 -6 -21
-14 -3 -8 -17 -17 -30 -20 -14 -4 -38 -19 -52 -34 -15 -16 -49 -38 -75 -51
-26 -12 -47 -27 -47 -32 0 -5 -6 -9 -13 -9 -8 0 -22 -9 -32 -20 -10 -11 -24
-20 -30 -20 -7 0 -15 -7 -19 -15 -3 -8 -12 -15 -21 -15 -8 0 -15 -4 -15 -9 0
-5 -13 -14 -30 -20 -16 -5 -30 -15 -30 -20 0 -6 -7 -11 -15 -11 -7 0 -18 -6
-22 -12 -7 -12 -27 -25 -78 -52 -35 -19 -115 -79 -115 -87 0 -4 -14 -10 -30
-14 -17 -4 -30 -11 -30 -16 0 -5 -7 -9 -15 -9 -8 0 -19 -8 -24 -18 -5 -10 -25
-25 -43 -34 -18 -8 -51 -24 -73 -34 -45 -20 -74 -46 -92 -82 -19 -35 -17 -43
22 -86 27 -28 46 -39 75 -43 36 -5 42 -2 72 32 57 66 99 105 114 105 8 0 17 7
20 15 4 8 11 15 18 15 6 0 36 20 66 45 30 25 61 45 67 45 7 0 13 4 13 9 0 5
23 23 50 41 28 18 50 36 50 41 0 5 7 9 15 9 9 0 18 7 21 15 4 8 14 15 23 15 9
0 32 16 51 35 19 19 40 35 47 35 6 0 13 3 15 8 5 11 66 52 78 52 5 0 10 7 10
15 0 8 7 15 15 15 7 0 18 6 22 13 4 7 20 18 36 24 15 7 27 17 27 23 0 5 7 10
15 10 9 0 18 7 21 15 4 8 10 15 15 15 12 0 73 42 77 53 2 4 10 7 17 7 8 0 18
6 22 13 11 16 69 57 83 57 5 0 10 7 10 15 0 8 7 15 15 15 9 0 18 6 21 14 3 8
15 17 27 20 12 3 37 19 55 35 17 16 32 27 32 23 0 -4 6 0 13 8 15 18 66 54 90
63 9 3 17 11 17 17 0 5 5 10 10 10 5 0 18 8 28 18 35 32 62 52 72 52 6 0 13 7
16 15 4 8 10 15 15 15 14 0 70 41 98 73 14 15 31 27 39 27 14 0 27 9 76 55 37
35 59 50 104 70 17 9 32 20 32 25 0 6 7 10 15 10 8 0 15 7 15 15 0 8 7 15 15
15 8 0 15 7 15 15 0 8 6 15 13 15 20 0 100 77 92 89 -11 20 -43 12 -87 -22z"/>
<path d="M4955 3057 c-10 -7 -25 -18 -33 -24 -7 -7 -17 -13 -21 -13 -4 0 -30
-22 -58 -50 -28 -27 -56 -50 -62 -50 -6 0 -11 -4 -11 -9 0 -5 -10 -11 -22 -15
-13 -3 -38 -19 -56 -36 -18 -16 -37 -30 -43 -30 -5 0 -9 -7 -9 -15 0 -8 -8
-15 -18 -15 -11 0 -27 -9 -37 -20 -10 -11 -23 -20 -29 -20 -6 -1 -22 -14 -36
-30 -13 -17 -28 -30 -32 -30 -8 0 -67 -38 -78 -51 -18 -19 -105 -79 -116 -79
-8 0 -14 -7 -14 -15 0 -8 -7 -15 -15 -15 -9 0 -18 -7 -21 -15 -4 -8 -12 -15
-20 -15 -8 0 -14 -5 -14 -10 0 -6 -12 -16 -27 -23 -16 -6 -32 -17 -36 -24 -4
-7 -15 -13 -22 -13 -8 0 -15 -6 -15 -12 0 -7 -18 -21 -39 -32 -22 -10 -52 -30
-68 -45 -16 -14 -41 -32 -56 -38 -15 -7 -27 -17 -27 -23 0 -5 -6 -10 -14 -10
-8 0 -16 -7 -20 -15 -3 -8 -12 -15 -21 -15 -8 0 -15 -7 -15 -15 0 -8 -6 -15
-13 -15 -7 0 -20 -9 -30 -20 -9 -11 -23 -20 -31 -20 -8 0 -16 -7 -20 -15 -3
-8 -12 -15 -21 -15 -8 0 -15 -4 -15 -9 0 -4 -19 -21 -42 -37 -24 -16 -44 -32
-46 -36 -2 -5 -10 -8 -18 -8 -8 0 -17 -7 -20 -15 -4 -8 -12 -15 -20 -15 -7 0
-17 -6 -21 -12 -11 -17 -69 -58 -83 -58 -5 0 -10 -7 -10 -15 0 -8 -7 -15 -15
-15 -9 0 -18 -7 -21 -15 -4 -8 -11 -15 -18 -15 -6 0 -19 -9 -29 -20 -9 -11
-24 -20 -32 -20 -8 0 -15 -7 -15 -15 0 -8 -7 -15 -15 -15 -9 0 -18 -7 -21 -15
-4 -8 -12 -15 -20 -15 -8 0 -14 -4 -14 -9 0 -5 -13 -14 -29 -21 -16 -6 -32
-18 -35 -27 -3 -8 -10 -11 -16 -8 -6 3 -13 0 -16 -9 -3 -8 -19 -19 -35 -25
-16 -5 -29 -15 -29 -20 0 -6 -6 -11 -14 -11 -8 0 -16 -7 -20 -15 -3 -8 -10
-15 -16 -15 -5 0 -19 -8 -29 -17 -11 -10 -37 -31 -57 -48 -21 -16 -46 -38 -56
-47 -10 -10 -21 -18 -25 -18 -5 0 -19 -12 -32 -26 -13 -14 -37 -32 -53 -40
-15 -8 -28 -19 -28 -24 0 -6 -7 -10 -15 -10 -8 0 -15 -5 -15 -10 0 -6 -10 -15
-22 -21 -31 -14 -61 -31 -78 -47 -8 -7 -28 -23 -44 -36 -41 -34 -31 -65 30
-91 25 -11 49 -24 52 -30 16 -23 175 -85 219 -85 12 0 34 -6 50 -14 144 -70
175 -76 408 -82 288 -7 540 14 565 47 3 4 24 12 47 18 23 6 45 16 48 21 3 6
18 10 33 10 15 0 40 7 56 15 15 8 38 15 51 15 12 0 30 9 40 20 10 11 22 20 27
20 5 0 16 7 24 15 9 8 24 15 35 15 11 0 22 7 25 15 4 8 14 15 24 15 10 0 25 7
34 15 8 8 20 15 26 15 6 0 13 7 16 15 4 8 11 15 18 15 6 0 19 9 29 20 9 11 26
20 37 20 11 0 20 7 20 15 0 8 4 15 9 15 23 0 251 226 251 249 0 6 4 11 8 11 5
0 15 12 23 28 8 15 17 29 20 32 14 12 79 111 79 120 0 5 3 10 8 10 4 0 13 15
21 33 7 17 26 52 41 77 15 25 35 74 44 110 9 36 22 79 28 95 5 17 14 50 20 75
6 25 14 50 18 55 5 6 11 26 14 45 3 19 10 51 16 70 5 19 10 122 10 228 0 193
-9 263 -45 347 -8 17 -17 42 -20 58 -4 15 -11 27 -16 27 -5 0 -9 7 -9 15 0 14
-30 36 -47 34 -4 0 -17 -6 -28 -12z"/>
<path d="M2585 2985 l-30 -25 29 2 c17 2 35 12 44 26 21 31 -4 30 -43 -3z"/>
<path d="M2270 2793 c-8 -3 -19 -12 -23 -19 -4 -8 -12 -14 -17 -14 -5 0 -21
-11 -36 -25 -15 -14 -38 -28 -51 -31 -13 -4 -23 -10 -23 -16 0 -5 -13 -14 -29
-19 -16 -6 -32 -17 -35 -25 -3 -8 -12 -14 -21 -14 -8 0 -15 -4 -15 -9 0 -5
-14 -12 -31 -16 -17 -4 -33 -13 -36 -21 -3 -8 -11 -14 -19 -14 -8 0 -23 -8
-33 -17 -32 -29 -50 -43 -56 -43 -3 0 -28 -16 -55 -35 -27 -19 -54 -35 -60
-35 -5 0 -10 -5 -10 -11 0 -5 -13 -15 -30 -20 -16 -6 -30 -15 -30 -20 0 -5 -5
-9 -11 -9 -7 0 -31 -16 -55 -35 -23 -19 -47 -35 -53 -35 -6 0 -11 -4 -11 -9 0
-5 -21 -19 -47 -32 -27 -12 -52 -29 -56 -36 -4 -7 -12 -13 -18 -13 -5 0 -19
-9 -31 -20 -12 -11 -27 -20 -34 -20 -6 0 -14 -7 -18 -15 -3 -8 -12 -15 -21
-15 -8 0 -15 -4 -15 -9 0 -5 -13 -14 -30 -20 -16 -5 -30 -15 -30 -20 0 -6 -7
-11 -15 -11 -9 0 -18 -6 -21 -14 -3 -8 -16 -17 -30 -20 -13 -4 -24 -11 -24
-16 0 -5 -15 -16 -34 -25 -18 -9 -42 -24 -52 -34 -11 -9 -27 -20 -36 -24 -10
-3 -18 -11 -18 -17 0 -5 -9 -10 -19 -10 -11 0 -26 -7 -35 -15 -8 -8 -18 -15
-23 -15 -5 0 -16 -8 -25 -17 -27 -29 -46 -43 -73 -53 -14 -5 -25 -14 -25 -20
0 -5 -5 -10 -10 -10 -12 0 -73 -41 -78 -52 -2 -4 -24 -18 -50 -30 -26 -13 -51
-29 -55 -35 -4 -7 -15 -13 -22 -13 -8 0 -15 -6 -15 -12 0 -7 -26 -25 -58 -40
-107 -52 -142 -85 -142 -134 0 -45 47 -74 122 -74 56 0 77 12 91 53 4 9 11 17
17 17 5 0 10 7 10 15 0 8 5 15 11 15 6 0 17 7 25 15 9 8 24 15 34 15 10 0 20
7 24 15 3 8 12 15 21 15 8 0 15 7 15 15 0 8 6 15 13 15 7 0 20 9 30 20 9 11
23 20 31 20 8 0 16 7 20 15 3 8 12 15 21 15 8 0 15 4 15 9 0 4 42 37 93 71 50
35 94 67 95 72 2 4 10 8 18 8 8 0 17 7 20 15 4 8 11 15 18 15 6 0 19 9 29 20
9 11 23 20 31 20 8 0 16 7 20 15 3 8 12 15 21 15 8 0 15 7 15 15 0 8 5 15 10
15 12 0 73 41 78 53 2 4 9 7 16 7 6 0 19 8 28 18 24 26 61 52 74 52 7 0 14 7
18 15 3 8 12 15 20 15 7 0 16 7 20 15 3 8 11 15 18 15 7 0 30 16 51 35 21 19
42 35 48 35 5 0 9 5 9 10 0 6 10 15 23 21 36 16 69 36 76 46 12 18 104 83 117
83 8 0 14 7 14 15 0 8 6 15 13 15 6 0 23 12 37 27 14 14 40 32 58 40 17 7 32
18 32 23 0 6 5 10 10 10 6 0 23 13 39 29 15 16 38 32 50 36 11 3 21 11 21 16
0 5 5 9 12 9 6 0 28 18 49 40 21 21 60 53 88 70 28 18 51 38 51 45 0 7 6 16
13 18 9 4 8 8 -3 16 -16 12 -27 12 -50 4z"/>
<path d="M2580 2650 c0 -5 7 -10 15 -10 8 0 15 5 15 10 0 6 -7 10 -15 10 -8 0
-15 -4 -15 -10z"/>
<path d="M2425 2540 c-10 -11 -15 -23 -12 -27 10 -9 57 18 57 34 0 19 -24 16
-45 -7z"/>
<path d="M2280 2462 c0 -5 -10 -14 -22 -21 -13 -6 -36 -20 -53 -31 -16 -11
-41 -24 -54 -30 -28 -13 -124 -81 -129 -92 -2 -5 -12 -8 -23 -8 -10 0 -19 -4
-19 -9 0 -5 -13 -14 -30 -20 -16 -5 -30 -15 -30 -20 0 -6 -7 -11 -15 -11 -9 0
-18 -6 -21 -14 -3 -8 -17 -17 -32 -21 -15 -4 -29 -10 -32 -13 -9 -13 -69 -52
-79 -52 -5 0 -11 -7 -15 -15 -3 -8 -12 -15 -21 -15 -8 0 -15 -5 -15 -10 0 -6
-12 -16 -27 -23 -16 -6 -32 -17 -36 -24 -4 -7 -15 -13 -22 -13 -8 0 -15 -4
-15 -9 0 -5 -9 -13 -20 -16 -11 -3 -26 -12 -33 -18 -17 -16 -46 -34 -77 -49
-14 -7 -29 -18 -33 -25 -4 -7 -14 -13 -22 -13 -7 0 -15 -3 -17 -7 -4 -10 -58
-48 -80 -56 -10 -3 -18 -11 -18 -17 0 -5 -6 -10 -13 -10 -8 0 -25 -9 -38 -20
-13 -11 -29 -24 -35 -28 -5 -5 -30 -20 -55 -33 -24 -13 -48 -30 -52 -36 -4 -7
-14 -13 -21 -13 -8 0 -16 -6 -19 -13 -2 -7 -25 -23 -51 -35 -25 -13 -46 -28
-46 -33 0 -5 -11 -11 -24 -15 -14 -3 -27 -12 -30 -20 -3 -8 -12 -14 -21 -14
-8 0 -15 -4 -15 -9 0 -5 -21 -19 -46 -31 -25 -13 -62 -38 -82 -56 -21 -19 -42
-34 -48 -34 -6 0 -32 -9 -58 -20 -50 -23 -53 -30 -34 -92 9 -30 19 -43 46 -54
19 -8 42 -14 52 -14 21 0 80 29 80 39 0 4 20 20 45 35 25 16 45 33 45 37 0 5
7 9 15 9 8 0 15 7 15 15 0 8 7 15 15 15 9 0 18 7 21 15 4 8 10 15 15 15 11 0
103 64 133 91 11 11 32 25 48 31 15 7 28 16 28 20 0 3 23 21 50 39 27 18 50
36 50 41 0 4 6 8 14 8 8 0 16 7 20 15 3 8 12 15 21 15 8 0 15 4 15 10 0 5 12
16 28 24 15 8 38 25 52 37 14 13 44 33 65 44 22 11 44 26 48 33 4 6 15 12 22
12 8 0 15 7 15 15 0 8 7 15 15 15 7 0 18 6 22 13 11 16 69 57 83 57 5 0 10 7
10 15 0 8 5 15 10 15 14 0 72 41 83 58 4 6 15 12 22 12 8 0 15 5 15 10 0 6 5
10 12 10 6 0 18 7 27 15 53 48 62 55 71 55 5 0 13 6 17 13 4 6 21 19 37 27 15
8 38 25 50 37 11 13 27 23 34 23 6 0 12 7 12 15 0 8 9 15 20 15 11 0 20 4 20
9 0 5 14 14 30 21 17 7 30 15 30 19 0 12 67 81 78 81 7 0 21 8 31 18 11 9 27
23 35 30 26 21 19 42 -14 42 -16 0 -30 -4 -30 -8z"/>
<path d="M2613 2343 c-20 -7 -15 -23 7 -23 11 0 20 4 20 9 0 13 -12 19 -27 14z"/>
<path d="M2438 2212 c-10 -2 -18 -8 -18 -13 0 -11 11 -11 30 1 18 11 11 18
-12 12z"/>
<path d="M2328 2152 c-23 -2 -49 -14 -67 -29 -31 -28 -133 -89 -163 -100 -10
-3 -18 -10 -18 -17 0 -6 -22 -21 -50 -34 -27 -13 -50 -27 -50 -32 0 -6 -6 -10
-13 -10 -13 0 -29 -11 -77 -52 -8 -7 -33 -22 -55 -33 -22 -11 -44 -25 -48 -32
-4 -7 -14 -13 -21 -13 -7 0 -21 -9 -31 -20 -10 -11 -24 -20 -31 -20 -7 0 -14
-3 -16 -7 -4 -10 -57 -42 -80 -50 -10 -3 -18 -12 -18 -19 0 -8 -4 -14 -9 -14
-9 0 -99 -56 -136 -85 -10 -8 -24 -15 -31 -15 -7 0 -14 -7 -18 -15 -3 -8 -12
-15 -21 -15 -8 0 -15 -5 -15 -11 0 -5 -13 -15 -30 -20 -16 -6 -30 -15 -30 -20
0 -5 -7 -9 -15 -9 -9 0 -18 -7 -21 -15 -4 -8 -12 -15 -20 -15 -8 0 -22 -8 -32
-17 -26 -24 -52 -41 -84 -54 -16 -6 -28 -15 -28 -20 0 -5 -4 -9 -9 -9 -6 0
-25 -14 -43 -31 -18 -16 -45 -33 -60 -36 -15 -3 -33 -12 -39 -19 -6 -8 -16
-14 -21 -14 -15 0 -78 -73 -84 -98 -8 -31 30 -61 77 -62 47 0 139 30 146 47 3
7 9 13 14 13 4 0 25 16 46 35 21 19 42 35 46 35 4 0 21 13 37 30 16 17 34 30
40 30 5 0 10 5 10 10 0 6 12 16 28 23 15 6 31 17 35 24 4 7 15 13 22 13 8 0
15 5 15 10 0 6 8 14 17 17 9 4 24 13 32 20 39 34 192 143 201 143 6 0 10 6 10
13 0 12 17 23 73 49 15 7 27 18 27 25 0 7 6 13 14 13 8 0 16 7 20 15 3 8 12
15 21 15 8 0 15 7 15 15 0 8 5 15 12 15 14 0 118 71 118 80 0 4 14 13 30 20
17 7 30 16 30 21 0 5 7 9 15 9 9 0 18 7 21 15 4 8 10 15 15 15 5 0 25 16 45
35 19 19 42 35 50 35 8 0 17 7 20 15 4 8 10 15 14 15 5 0 31 23 59 50 28 28
57 50 66 50 20 0 87 67 83 82 -2 8 -16 12 -40 10z"/>
<path d="M2438 1881 c-14 -12 -33 -21 -41 -21 -9 0 -19 -4 -22 -10 -3 -5 -23
-14 -43 -20 -20 -5 -49 -21 -64 -35 -15 -14 -31 -25 -36 -25 -5 0 -15 -6 -21
-14 -7 -8 -26 -18 -42 -21 -16 -4 -29 -11 -29 -16 0 -5 -11 -11 -24 -15 -14
-3 -27 -12 -30 -20 -3 -8 -12 -14 -21 -14 -8 0 -15 -5 -15 -11 0 -5 -13 -15
-30 -20 -16 -6 -30 -15 -30 -20 0 -5 -7 -9 -15 -9 -7 0 -18 -6 -22 -13 -4 -7
-20 -18 -35 -24 -16 -7 -28 -17 -28 -23 0 -5 -9 -10 -20 -10 -11 0 -20 -5 -20
-11 0 -5 -13 -15 -30 -20 -16 -6 -30 -15 -30 -20 0 -5 -7 -9 -15 -9 -9 0 -18
-6 -21 -14 -3 -8 -19 -20 -35 -26 -16 -7 -29 -16 -29 -21 0 -5 -4 -9 -9 -9 -6
0 -30 -13 -54 -30 -25 -16 -50 -30 -56 -30 -6 0 -11 -6 -11 -14 0 -7 -8 -16
-17 -19 -26 -8 -77 -40 -85 -53 -4 -7 -19 -15 -33 -18 -14 -4 -25 -11 -25 -16
0 -6 -7 -10 -15 -10 -7 0 -18 -6 -22 -12 -9 -15 -59 -46 -86 -55 -9 -3 -17
-12 -17 -19 0 -8 -7 -14 -15 -14 -8 0 -15 -7 -15 -15 0 -8 -4 -15 -9 -15 -17
0 -61 -46 -61 -63 0 -26 38 -40 99 -34 66 5 173 52 194 85 4 6 15 12 22 12 8
0 15 7 15 15 0 8 5 15 11 15 6 0 32 20 57 45 46 45 80 68 115 81 9 3 17 13 17
20 0 8 6 14 13 14 8 0 22 9 32 20 10 11 24 20 30 20 7 0 15 7 19 15 3 8 12 15
21 15 8 0 15 5 15 11 0 5 14 15 30 20 17 6 30 15 30 20 0 5 5 9 10 9 6 0 25
16 43 35 17 19 38 35 44 35 7 0 13 4 13 9 0 5 10 13 21 16 12 4 35 20 50 36
16 16 32 29 36 29 5 0 16 9 26 20 9 11 23 20 31 20 8 0 16 7 20 15 3 8 12 15
21 15 8 0 15 7 15 15 0 8 7 15 15 15 8 0 15 7 15 15 0 8 7 15 15 15 9 0 18 6
21 14 3 8 19 18 35 21 16 4 29 13 29 21 0 8 7 14 15 14 8 0 15 6 15 13 0 12
59 68 92 88 6 4 9 12 6 19 -2 8 -12 5 -30 -9z"/>
<path d="M2650 1690 c0 -5 9 -10 20 -10 11 0 20 5 20 10 0 6 -9 10 -20 10 -11
0 -20 -4 -20 -10z"/>
<path d="M2425 1552 c-67 -35 -84 -42 -99 -42 -9 0 -16 -4 -16 -8 0 -10 -77
-62 -91 -62 -5 0 -9 -4 -9 -10 0 -5 -11 -12 -25 -16 -14 -3 -29 -11 -33 -18
-8 -12 -34 -30 -72 -48 -14 -7 -29 -18 -33 -25 -4 -7 -15 -13 -22 -13 -8 0
-15 -4 -15 -9 0 -5 -13 -14 -30 -20 -16 -5 -30 -15 -30 -20 0 -6 -5 -11 -10
-11 -12 0 -73 -41 -78 -52 -2 -5 -12 -8 -23 -8 -10 0 -19 -4 -19 -10 0 -5 -15
-17 -32 -25 -18 -8 -46 -24 -63 -35 -16 -11 -41 -24 -54 -30 -74 -33 -104 -81
-58 -96 30 -10 184 -6 228 6 20 6 48 21 63 35 15 14 31 25 37 25 5 0 9 7 9 15
0 8 7 15 15 15 7 0 18 6 22 13 4 7 17 20 29 28 21 14 122 100 156 132 10 9 22
17 28 17 5 0 13 6 17 13 4 7 33 33 63 57 30 25 57 48 58 53 2 4 8 7 14 7 12 0
58 41 58 52 0 4 18 26 40 50 22 24 40 46 40 51 0 12 -33 6 -65 -11z"/>
</g>
</svg>
